<svg xmlns="http://www.w3.org/2000/svg" xmlns:xlink="http://www.w3.org/1999/xlink" width="500" zoomAndPan="magnify" viewBox="0 0 375 374.999991" height="500" preserveAspectRatio="xMidYMid meet" version="1.0"><defs><g/><clipPath id="7e0fc40e12"><path d="M 187.5 0 C 83.945312 0 0 83.945312 0 187.5 C 0 291.054688 83.945312 375 187.5 375 C 291.054688 375 375 291.054688 375 187.5 C 375 83.945312 291.054688 0 187.5 0 Z M 187.5 0 " clip-rule="nonzero"/></clipPath></defs><g clip-path="url(#7e0fc40e12)"><rect x="-37.5" width="450" fill="#ffffff" y="-37.499999" height="449.999989" fill-opacity="1"/></g><g fill="#000000" fill-opacity="1"><g transform="translate(76.196133, 246.714448)"><g><path d="M 57.359375 -120.21875 L 90.171875 -120.21875 L 90.171875 -49.125 C 90.171875 -37.675781 88.164062 -28.113281 84.15625 -20.4375 C 80.144531 -12.769531 74.734375 -7.015625 67.921875 -3.171875 C 61.109375 0.660156 53.410156 2.578125 44.828125 2.578125 C 38.296875 2.578125 32.597656 1.890625 27.734375 0.515625 C 22.867188 -0.859375 18.40625 -2.921875 14.34375 -5.671875 C 10.28125 -8.421875 6.070312 -11.910156 1.71875 -16.140625 L 20.265625 -35.03125 C 23.703125 -31.601562 26.878906 -29.285156 29.796875 -28.078125 C 32.710938 -26.878906 36.117188 -26.28125 40.015625 -26.28125 C 51.578125 -26.28125 57.359375 -33.550781 57.359375 -48.09375 C 57.359375 -50.5 57.359375 -53.90625 57.359375 -58.3125 C 57.359375 -62.71875 57.359375 -67.640625 57.359375 -73.078125 C 57.359375 -78.515625 57.359375 -84.007812 57.359375 -89.5625 C 57.359375 -95.113281 57.359375 -100.207031 57.359375 -104.84375 C 57.359375 -109.488281 57.359375 -113.210938 57.359375 -116.015625 C 57.359375 -118.816406 57.359375 -120.21875 57.359375 -120.21875 Z M 57.359375 -120.21875 "/></g></g></g><g fill="#000000" fill-opacity="1"><g transform="translate(159.141717, 246.714448)"><g><path d="M 134.484375 2.75 L 108.203125 22.5 L 90.6875 -0.859375 C 84.039062 1.429688 77.113281 2.578125 69.90625 2.578125 C 61.195312 2.578125 52.945312 0.945312 45.15625 -2.3125 C 37.375 -5.582031 30.476562 -10.078125 24.46875 -15.796875 C 18.457031 -21.523438 13.734375 -28.164062 10.296875 -35.71875 C 6.867188 -43.28125 5.15625 -51.410156 5.15625 -60.109375 C 5.15625 -68.816406 6.867188 -76.945312 10.296875 -84.5 C 13.734375 -92.0625 18.457031 -98.734375 24.46875 -104.515625 C 30.476562 -110.296875 37.375 -114.816406 45.15625 -118.078125 C 52.945312 -121.335938 61.195312 -122.96875 69.90625 -122.96875 C 78.601562 -122.96875 86.816406 -121.335938 94.546875 -118.078125 C 102.273438 -114.816406 109.144531 -110.296875 115.15625 -104.515625 C 121.164062 -98.734375 125.890625 -92.0625 129.328125 -84.5 C 132.765625 -76.945312 134.484375 -68.816406 134.484375 -60.109375 C 134.484375 -52.210938 133.019531 -44.742188 130.09375 -37.703125 C 127.175781 -30.660156 123.195312 -24.390625 118.15625 -18.890625 Z M 36.921875 -60.109375 C 36.921875 -54.046875 38.410156 -48.519531 41.390625 -43.53125 C 44.367188 -38.550781 48.347656 -34.601562 53.328125 -31.6875 C 58.304688 -28.769531 63.832031 -27.3125 69.90625 -27.3125 C 75.96875 -27.3125 81.488281 -28.769531 86.46875 -31.6875 C 91.457031 -34.601562 95.410156 -38.550781 98.328125 -43.53125 C 101.242188 -48.519531 102.703125 -54.046875 102.703125 -60.109375 C 102.703125 -66.179688 101.242188 -71.707031 98.328125 -76.6875 C 95.410156 -81.664062 91.457031 -85.644531 86.46875 -88.625 C 81.488281 -91.601562 75.96875 -93.09375 69.90625 -93.09375 C 63.832031 -93.09375 58.304688 -91.601562 53.328125 -88.625 C 48.347656 -85.644531 44.367188 -81.664062 41.390625 -76.6875 C 38.410156 -71.707031 36.921875 -66.179688 36.921875 -60.109375 Z M 36.921875 -60.109375 "/></g></g></g></svg>